<svg width="264" height="85" viewBox="0 0 264 85" fill="none" xmlns="http://www.w3.org/2000/svg">
<path d="M9.43265 27.5958C9.10522 27.8069 8.97163 27.7757 9.54307 27.7751C12.0595 27.7721 14.576 27.7644 17.0924 27.7662C34.7904 27.7788 52.4856 27.9933 70.1857 27.8836C78.3956 27.8327 90.3701 27.2485 94.6718 21.138C96.2032 18.9626 97.8013 13.7569 93.2017 12.7485C84.1066 10.7544 76.9297 16.5551 72.6579 21.4826C63.9593 31.5165 59.9106 42.7156 59.1683 54.4454C58.9306 58.2014 58.3109 62.4562 60.3115 66.0243C60.6685 66.6611 61.4024 67.9316 62.2978 68.2543" stroke="#6D6A68" stroke-linecap="round"/>
<path d="M75.8275 37.4892C74.9043 39.9145 72.1345 47.1902 73.0578 44.765C73.3458 44.0084 74.5924 38.9522 75.8908 39.4465C76.9385 39.8453 76.3599 43.6297 76.3963 44.4894C76.5015 46.9753 76.8741 51.2509 79.1537 52.8498C84.8274 56.8296 90.774 51.0677 94.6029 47.1673C94.7319 47.0359 96.413 44.9513 95.6154 45.3384C94.8965 45.6874 94.7067 46.8946 94.4451 47.5817C94.0763 48.5506 94.5896 48.7712 95.4585 49.0747C96.6694 49.4975 97.6475 48.7032 98.62 48.0639C98.8438 47.9167 100.276 46.4994 100.196 47.4335C100.109 48.4413 100.394 49.7575 101.084 50.5482C102.899 52.6303 105.089 49.9809 106.345 48.5444C107.356 47.3882 107.902 49.0265 108.62 49.5861C110.026 50.6825 112.628 46.959 113.974 46.51C115.586 45.9723 115.971 48.5822 116.518 49.4292C117.519 50.9807 117.915 50.4958 118.974 49.626C120.268 48.562 123.152 51.1967 123.74 52.1083C127.494 57.9255 124.974 67.2614 120.014 71.638C118.247 73.197 116.069 74.4213 113.662 74.4746C110.58 74.5428 112.672 70.1439 113.372 68.635C116.236 62.4576 123.177 58.2755 128.824 54.9575C139.144 48.8938 150.346 44.8362 161.567 40.7796C168.714 38.1956 176.017 36.0488 183.082 33.2414C186.868 31.7372 190.637 30.0717 192.485 26.2235C195.451 20.0462 186.501 16.0397 181.546 16.9631C175.806 18.0332 170.2 23.0295 166.34 27.1317C162.276 31.4511 159.726 36.4336 157.436 41.8433C153.298 51.6168 166.765 56.0583 173.851 58.3204C182.288 61.0136 192.139 57.4407 195.702 49.1172C195.94 48.5627 197.367 44.6333 196.675 47.2555C196.03 49.6939 195.651 52.0662 195.235 54.5455C195.01 55.8854 194.87 57.2756 194.944 58.6348C195.009 59.8237 196.813 57.5646 197.03 57.3553C200.429 54.0773 203.582 51.7492 208.37 53.4651C209.232 53.774 210.311 54.0274 211.019 54.6316C211.339 54.9048 211.895 55.3909 212.324 55.3571C214.177 55.2111 215.465 52.6252 216.675 51.4072C217.45 50.6266 215.811 51.1024 215.471 51.2474C213.508 52.0827 211.528 52.9599 210.01 54.5113C209.602 54.9282 208.456 56.2097 208.766 56.9023C209.197 57.8627 210.778 57.6038 211.463 57.2963C214.496 55.9361 216.647 52.9343 219.604 51.6082C220.683 51.1238 221.164 52.6414 221.806 52.8859C222.213 53.0408 223.012 51.9677 223.352 51.7345C224.465 50.9701 225.241 51.0302 226.45 51.4903C228.525 52.2804 230.244 53.5674 232.318 54.3569" stroke="#6D6A68" stroke-linecap="round"/>
</svg>
